<svg xmlns="http://www.w3.org/2000/svg" width="300" viewBox="0 100 375 150" height="100" version="1.0">
  <defs>
    <clipPath id="a">
      <path d="M 9.851562 131.878906 L 106.601562 131.878906 L 106.601562 239.878906 L 9.851562 239.878906 Z M 9.851562 131.878906" />
    </clipPath>
    <clipPath id="b">
      <path d="M 77 179 L 89 179 L 89 191 L 77 191 Z M 77 179" />
    </clipPath>
    <clipPath id="c">
      <path d="M 57.214844 153.054688 L 104.453125 152.09375 L 106.28125 242.078125 L 59.042969 243.035156 Z M 57.214844 153.054688" />
    </clipPath>
    <clipPath id="d">
      <path d="M 34.132812 153.523438 L 215.59375 149.839844 L 217.421875 239.820312 L 35.957031 243.503906 Z M 34.132812 153.523438" />
    </clipPath>
    <clipPath id="e">
      <path d="M 34.132812 153.523438 L 215.59375 149.839844 L 217.421875 239.820312 L 35.957031 243.503906 Z M 34.132812 153.523438" />
    </clipPath>
    <clipPath id="f">
      <path d="M 62 182 L 81 182 L 81 210 L 62 210 Z M 62 182" />
    </clipPath>
    <clipPath id="g">
      <path d="M 57.214844 153.054688 L 104.453125 152.09375 L 106.28125 242.078125 L 59.042969 243.035156 Z M 57.214844 153.054688" />
    </clipPath>
    <clipPath id="h">
      <path d="M 34.132812 153.523438 L 215.59375 149.839844 L 217.421875 239.820312 L 35.957031 243.503906 Z M 34.132812 153.523438" />
    </clipPath>
    <clipPath id="i">
      <path d="M 34.132812 153.523438 L 215.59375 149.839844 L 217.421875 239.820312 L 35.957031 243.503906 Z M 34.132812 153.523438" />
    </clipPath>
    <clipPath id="j">
      <path d="M 82 187 L 101 187 L 101 216 L 82 216 Z M 82 187" />
    </clipPath>
    <clipPath id="k">
      <path d="M 57.214844 153.054688 L 104.453125 152.09375 L 106.28125 242.078125 L 59.042969 243.035156 Z M 57.214844 153.054688" />
    </clipPath>
    <clipPath id="l">
      <path d="M 34.132812 153.523438 L 215.59375 149.839844 L 217.421875 239.820312 L 35.957031 243.503906 Z M 34.132812 153.523438" />
    </clipPath>
    <clipPath id="m">
      <path d="M 34.132812 153.523438 L 215.59375 149.839844 L 217.421875 239.820312 L 35.957031 243.503906 Z M 34.132812 153.523438" />
    </clipPath>
  </defs>
  <path fill="#F9F9F9" d="M 58.226562 133.050781 L 11.109375 156.476562 L 58.226562 179.902344 L 105.34375 156.476562 Z M 58.226562 133.050781" />
  <path fill="#ECECEC" d="M 58.226562 179.902344 L 58.226562 238.472656 L 105.34375 215.042969 L 105.34375 156.476562 Z M 58.226562 179.902344" />
  <path fill="#CCC" d="M 58.226562 179.902344 L 58.226562 238.472656 L 11.109375 215.042969 L 11.109375 156.476562 Z M 58.226562 179.902344" />
  <g clip-path="url(#a)">
    <path transform="matrix(2.35584 0 0 2.34273 -12.448 127.515)" fill="none" d="M 29.999705 2.374527 L 9.999569 12.375533 L 9.999569 37.374712 L 29.999705 47.375718 L 49.999842 37.374712 L 49.999842 12.375533 Z M 29.999705 2.374527" stroke="#4D4D4D" />
  </g>
  <g clip-path="url(#b)">
    <g clip-path="url(#c)">
      <g clip-path="url(#d)">
        <g clip-path="url(#e)">
          <path fill="#34BC85" d="M 88.878906 185.035156 C 88.941406 188.058594 86.535156 190.5625 83.507812 190.621094 C 80.480469 190.683594 77.976562 188.28125 77.917969 185.257812 C 77.855469 182.234375 80.257812 179.730469 83.285156 179.667969 C 86.316406 179.609375 88.820312 182.007812 88.878906 185.035156 Z M 88.878906 185.035156" />
        </g>
      </g>
    </g>
  </g>
  <g clip-path="url(#f)">
    <g clip-path="url(#g)">
      <g clip-path="url(#h)">
        <g clip-path="url(#i)">
          <path fill="#34BC85" d="M 80.933594 209.3125 C 70.960938 209.515625 62.710938 201.601562 62.511719 191.640625 L 62.335938 182.980469 C 72.304688 182.78125 80.554688 190.691406 80.757812 200.652344 Z M 80.933594 209.3125" />
        </g>
      </g>
    </g>
  </g>
  <g clip-path="url(#j)">
    <g clip-path="url(#k)">
      <g clip-path="url(#l)">
        <g clip-path="url(#m)">
          <path fill="#34BC85" d="M 100.371094 187.984375 C 90.398438 188.1875 82.476562 196.425781 82.679688 206.390625 L 82.855469 215.046875 C 92.828125 214.84375 100.746094 206.605469 100.546875 196.640625 Z M 100.371094 187.984375" />
        </g>
      </g>
    </g>
  </g>
  <g fill="#FFF">
    <g>
      <g>
        <path d="M 1.542969 0 L 21.703125 0 C 26.710938 0 28.886719 -2.675781 28.886719 -6.394531 C 28.886719 -9.039062 27.71875 -10.804688 25.796875 -11.875 C 26.964844 -13.074219 27.53125 -14.617188 27.53125 -16.222656 C 27.53125 -19.433594 25.988281 -22.050781 20.980469 -22.050781 L 1.542969 -22.050781 Z M 6.519531 -13.167969 L 6.519531 -18.300781 L 19.371094 -18.300781 C 21.105469 -18.300781 22.554688 -18.300781 22.554688 -15.71875 C 22.554688 -13.167969 21.105469 -13.167969 19.371094 -13.167969 Z M 6.519531 -3.9375 L 6.519531 -9.230469 L 20.695312 -9.230469 C 22.429688 -9.230469 23.910156 -9.230469 23.910156 -6.582031 C 23.910156 -3.9375 22.429688 -3.9375 20.695312 -3.9375 Z M 6.519531 -3.9375" transform="translate(113.474 196.5)" />
      </g>
    </g>
  </g>
  <g fill="#FFF">
    <g>
      <g>
        <path d="M 1.542969 0 L 6.363281 0 L 6.363281 -25.199219 L 1.542969 -25.199219 Z M 1.542969 0" transform="translate(143.588 196.5)" />
      </g>
    </g>
  </g>
  <g fill="#FFF">
    <g>
      <g>
        <path d="M 14.082031 0.316406 C 21.671875 0.316406 26.933594 -2.457031 26.933594 -9.230469 C 26.933594 -15.96875 21.671875 -18.742188 14.082031 -18.742188 C 6.519531 -18.742188 1.226562 -15.96875 1.226562 -9.230469 C 1.226562 -2.457031 6.519531 0.316406 14.082031 0.316406 Z M 14.082031 -3.683594 C 8.664062 -3.683594 6.046875 -5.070312 6.046875 -9.230469 C 6.046875 -13.355469 8.664062 -14.742188 14.082031 -14.742188 C 19.53125 -14.742188 22.113281 -13.355469 22.113281 -9.230469 C 22.113281 -5.070312 19.53125 -3.683594 14.082031 -3.683594 Z M 14.082031 -3.683594" transform="translate(151.494 196.5)" />
      </g>
    </g>
  </g>
  <g fill="#FFF">
    <g>
      <g>
        <path d="M 14.082031 0.316406 C 20.851562 0.316406 25.796875 -1.890625 26.742188 -7.246094 L 21.859375 -7.246094 C 21.074219 -4.628906 18.300781 -3.683594 14.082031 -3.683594 C 9.101562 -3.683594 6.046875 -5.070312 6.046875 -9.230469 C 6.046875 -13.355469 9.101562 -14.742188 14.082031 -14.742188 C 18.300781 -14.742188 21.074219 -13.828125 21.859375 -11.214844 L 26.742188 -11.214844 C 25.796875 -16.539062 20.851562 -18.742188 14.082031 -18.742188 C 6.519531 -18.742188 1.226562 -15.96875 1.226562 -9.230469 C 1.226562 -2.457031 6.519531 0.316406 14.082031 0.316406 Z M 14.082031 0.316406" transform="translate(179.656 196.5)" />
      </g>
    </g>
  </g>
  <g fill="#FFF">
    <g>
      <g>
        <path d="M 1.542969 0 L 6.363281 0 L 6.363281 -4.410156 L 13.167969 -8.347656 L 22.773438 0 L 29.640625 0 L 17.167969 -10.929688 L 29.640625 -18.425781 L 21.136719 -18.425781 L 6.363281 -9.671875 L 6.363281 -25.199219 L 1.542969 -25.199219 Z M 1.542969 0" transform="translate(207.66 196.5)" />
      </g>
    </g>
  </g>
  <g fill="#FFF">
    <g>
      <g>
        <path d="M 1.542969 0 L 6.363281 0 L 6.363281 -11.121094 C 7.875 -12.820312 11.277344 -14.648438 14.742188 -14.648438 C 18.867188 -14.648438 19.46875 -12.410156 19.46875 -8.285156 L 19.46875 0 L 24.285156 0 L 24.347656 -9.261719 C 24.347656 -10.078125 24.285156 -10.867188 24.222656 -11.59375 C 25.988281 -13.167969 29.011719 -14.648438 32.128906 -14.648438 C 36.257812 -14.648438 36.855469 -12.410156 36.855469 -8.285156 L 36.855469 0 L 41.675781 0 L 41.738281 -10.144531 C 41.675781 -16.882812 38.082031 -18.742188 33.671875 -18.742188 C 29.105469 -18.742188 25.671875 -17.167969 23.214844 -15.371094 C 21.796875 -17.921875 19.183594 -18.742188 16.285156 -18.742188 C 11.71875 -18.742188 8.472656 -17.074219 6.363281 -15.464844 L 6.363281 -18.425781 L 1.542969 -18.425781 Z M 1.542969 0" transform="translate(238.53 196.5)" />
      </g>
    </g>
  </g>
  <g fill="#FFF">
    <g>
      <g>
        <path d="M 1.542969 -20.632812 L 6.363281 -20.632812 L 6.363281 -25.199219 L 1.542969 -25.199219 Z M 1.542969 0 L 6.363281 0 L 6.363281 -18.425781 L 1.542969 -18.425781 Z M 1.542969 0" transform="translate(281.81 196.5)" />
      </g>
    </g>
  </g>
  <g fill="#FFF">
    <g>
      <g>
        <path d="M 1.542969 0 L 6.363281 0 L 6.363281 -10.425781 C 8.0625 -12.535156 12.378906 -14.648438 16.378906 -14.648438 C 21.136719 -14.648438 22.492188 -12.410156 22.492188 -8.285156 L 22.492188 0 L 27.308594 0 L 27.375 -10.046875 C 27.308594 -16.882812 22.710938 -18.742188 17.609375 -18.742188 C 12.976562 -18.742188 9.070312 -17.230469 6.363281 -14.992188 L 6.363281 -18.425781 L 1.542969 -18.425781 Z M 1.542969 0" transform="translate(289.717 196.5)" />
      </g>
    </g>
  </g>
  <g fill="#FFF">
    <g>
      <g>
        <path d="M 14.015625 0.316406 C 16.507812 0.316406 18.523438 0.15625 20.316406 -0.15625 L 20.316406 -4 C 18.144531 -3.683594 17.199219 -3.683594 15.496094 -3.683594 C 11.90625 -3.683594 11.214844 -4.597656 11.214844 -8.695312 L 11.214844 -14.425781 L 20.316406 -14.425781 L 20.316406 -18.425781 L 11.214844 -18.425781 L 11.214844 -23.941406 L 6.425781 -22.523438 L 6.425781 -18.425781 L 1.226562 -18.425781 L 1.226562 -14.425781 L 6.425781 -14.425781 L 6.425781 -5.574219 C 6.425781 -1.480469 9.542969 0.316406 14.015625 0.316406 Z M 14.015625 0.316406" transform="translate(318.634 196.5)" />
      </g>
    </g>
  </g>
  <g fill="#FFF">
    <g>
      <g>
        <path d="M 15.089844 0.316406 C 22.238281 0.316406 26.871094 -0.597656 26.871094 -5.671875 C 26.871094 -10.617188 21.890625 -10.773438 14.679688 -11.339844 C 7.84375 -11.875 6.804688 -12.128906 6.804688 -13.355469 C 6.804688 -14.554688 8.378906 -14.992188 13.828125 -14.992188 C 19.246094 -14.992188 21.421875 -14.554688 21.421875 -12.851562 L 26.238281 -12.851562 C 26.238281 -17.828125 21.136719 -18.742188 14.144531 -18.742188 C 7.589844 -18.742188 2.015625 -17.828125 2.015625 -13.136719 C 2.015625 -8.789062 6.046875 -8.160156 14.050781 -7.65625 C 21.105469 -7.183594 22.050781 -7.023438 22.050781 -5.480469 C 22.050781 -3.875 21.042969 -3.433594 14.773438 -3.433594 C 8.378906 -3.433594 6.046875 -4.316406 6.046875 -6.519531 L 1.226562 -6.519531 C 1.226562 -0.597656 7.9375 0.316406 15.089844 0.316406 Z M 15.089844 0.316406" transform="translate(340.18 196.5)" />
      </g>
    </g>
  </g>
</svg>